# xmcd
#
# Track frame offsets:
#	150
#	23138
#	60927
#	87306
#	126098
#	178101
#	216886
#
# Disc length: 3417 seconds
#
# Revision: 1
# Processed by: cddbd v1.5.2PL0 Copyright (c) Steve Scherf et al.
# Submitted via: audiograbber 1.83.01
#
DISCID=580d5707
DTITLE=Frank Zappa - Joe's Garage Acts I, II, and III [CD2]
DYEAR=1979
DGENRE=Pop
TTITLE0=Dong Work for Yuda
TTITLE1=Keep it greasey
TTITLE2=Outside now
TTITLE3=He used to cut the grass
TTITLE4=Packard goose
TTITLE5=Watermelon in easter hay
TTITLE6=A little green rosetta
EXTD=
EXTT0=
EXTT1=
EXTT2=
EXTT3=
EXTT4=
EXTT5=
EXTT6=
PLAYORDER=
